<?xml version="1.0" encoding="UTF-8"?>
<svg width="40px" height="40px" viewBox="0 0 40 40" version="1.1" xmlns="http://www.w3.org/2000/svg" xmlns:xlink="http://www.w3.org/1999/xlink">
    <!-- Generator: Sketch 48.1 (47250) - http://www.bohemiancoding.com/sketch -->
    <title>Behance</title>
    <desc>Created with Sketch.</desc>
    <defs></defs>
    <g id="contact" stroke="none" stroke-width="1" fill="none" fill-rule="evenodd" transform="translate(-330.000000, -507.000000)">
        <g id="section1" transform="translate(130.000000, 180.000000)">
            <g id="social" transform="translate(0.000000, 327.000000)">
                <g id="Behance" transform="translate(200.000000, 0.000000)">
                    <path d="M0,19.6721311 C0,8.80751258 8.8202402,0 19.7005591,0 C30.580878,0 39.4011182,8.80751258 39.4011182,19.6721311 C39.4011182,30.5367497 30.580878,39.3442623 19.7005591,39.3442623 C8.8202402,39.3442623 0,30.5367497 0,19.6721311 Z" id="back" fill-opacity="0.8" fill="#B693A5"></path>
                    <path d="M22.5887509,15.3031836 L28.1455725,15.3031836 L28.1455725,13.7111559 L22.5887509,13.7111559 L22.5887509,15.3031836 L22.5887509,15.3031836 Z M23.9051649,18.7769199 C23.5510779,19.1371952 23.3277686,19.625271 23.236471,20.2411472 L27.5583062,20.2411472 C27.5126574,19.583888 27.2881144,19.0872922 26.8908461,18.745274 C26.4886427,18.4056902 25.993908,18.2365068 25.4017067,18.2365068 C24.7601554,18.2365068 24.2592518,18.4166445 23.9051649,18.7769199 L23.9051649,18.7769199 L23.9051649,18.7769199 Z M27.6557727,16.6396105 C28.3257003,16.93416 28.8771877,17.4015443 29.3114686,18.039329 C29.7075032,18.6016508 29.9616562,19.2540413 30.077629,19.9952836 C30.1454854,20.4285877 30.1726279,21.0566354 30.1615242,21.8733407 L23.1747833,21.8733407 C23.2167309,22.8214979 23.5473766,23.487277 24.1790579,23.8682439 C24.5615212,24.1055875 25.0217109,24.2248678 25.5620946,24.2248678 C26.1308545,24.2248678 26.5959792,24.0800274 26.9525337,23.7915637 C27.1487004,23.6345517 27.3214257,23.4178997 27.469476,23.1403902 L30.0295126,23.1403902 C29.9616562,23.7002777 29.6507506,24.2711194 29.1004969,24.8504812 C28.2418052,25.7694268 27.0388964,26.2295082 25.4930044,26.2295082 C24.2160705,26.2295082 23.0896544,25.8424556 22.1162236,25.0659161 C21.1378578,24.2905937 20.6517593,23.0271956 20.6517593,21.2793732 C20.6517593,19.6398768 21.092209,18.3825644 21.9718746,17.507436 C22.8540077,16.6347419 23.9952288,16.195352 25.400473,16.195352 C26.2357235,16.195352 26.9870788,16.3438439 27.6557727,16.6396105 L27.6557727,16.6396105 L27.6557727,16.6396105 Z M11.7650395,20.2752273 L11.7650395,23.686889 L14.9135761,23.686889 C15.4761673,23.686889 15.9153832,23.611426 16.2275226,23.4617169 C16.7962825,23.1817732 17.0800456,22.6510973 17.0800456,21.8648207 C17.0800456,21.1978244 16.8061525,20.7413944 16.2546651,20.4918794 C15.946227,20.3531246 15.5131798,20.2800959 14.9579912,20.2752273 L11.7650395,20.2752273 L11.7650395,20.2752273 Z M11.7650395,15.3360466 L11.7650395,18.1586094 L14.9185111,18.1586094 C15.4798685,18.1586094 15.9375907,18.0527177 16.290444,17.8409342 C16.6408297,17.6291507 16.8172563,17.2542695 16.8172563,16.718725 C16.8172563,16.1211061 16.5853108,15.7279677 16.1214199,15.5356586 C15.7192165,15.4029896 15.208443,15.3360466 14.5878654,15.3360466 L11.7650395,15.3360466 L11.7650395,15.3360466 Z M18.8072992,14.4779582 C19.2033338,15.0220227 19.401968,15.671979 19.401968,16.4302613 C19.401968,17.2104522 19.2033338,17.839717 18.8023642,18.3144042 C18.5778212,18.5797421 18.2484093,18.8231714 17.8128946,19.0422578 C18.474186,19.2808185 18.9726221,19.6569168 19.311904,20.1717698 C19.6474847,20.6854057 19.8165088,21.311019 19.8165088,22.0461755 C19.8165088,22.8044578 19.6240434,23.4848427 19.2378789,24.0861131 C18.9935959,24.48412 18.6876252,24.8200525 18.3199669,25.0926933 C17.9066598,25.4055 17.4193276,25.6185006 16.8555026,25.7353467 C16.2916777,25.8509756 15.6822039,25.9069644 15.0233801,25.9069644 L9.18032787,25.9069644 L9.18032787,13.1147541 L15.4465572,13.1147541 C17.028228,13.1378799 18.1472416,13.5918755 18.8072992,14.4779582 L18.8072992,14.4779582 L18.8072992,14.4779582 Z" fill="#FFFFFF"></path>
                </g>
            </g>
        </g>
    </g>
</svg>