<?xml version="1.0" encoding="UTF-8"?>
<svg width="40px" height="40px" viewBox="0 0 40 40" version="1.1" xmlns="http://www.w3.org/2000/svg" xmlns:xlink="http://www.w3.org/1999/xlink">
    <!-- Generator: Sketch 48.1 (47250) - http://www.bohemiancoding.com/sketch -->
    <title>Dribbble</title>
    <desc>Created with Sketch.</desc>
    <defs></defs>
    <g id="contact" stroke="none" stroke-width="1" fill="none" fill-rule="evenodd" transform="translate(-380.000000, -507.000000)">
        <g id="section1" transform="translate(130.000000, 180.000000)">
            <g id="social" transform="translate(0.000000, 327.000000)">
                <g id="Dribbble" transform="translate(250.000000, 0.000000)">
                    <path d="M0,20 C0,8.95430446 8.95430446,0 20,0 C31.0456955,0 40,8.95430446 40,20 C40,31.0456955 31.0456955,40 20,40 C8.95430446,40 0,31.0456955 0,20 Z" id="back" fill-opacity="0.8" fill="#B693A5"></path>
                    <path d="M30.6666667,19.9852125 C30.6666667,20.7065774 30.5932277,21.4269418 30.44898,22.1291293 C30.3083229,22.8146407 30.0999883,23.487645 29.8270659,24.1310077 C29.560406,24.7629889 29.2296592,25.3719989 28.8431757,25.939944 C28.4624537,26.5043038 28.0238656,27.0337689 27.5420658,27.5164159 C27.0592223,27.9969785 26.5279483,28.43435 25.9638585,28.8166905 C25.3940489,29.2004902 24.7841588,29.5307597 24.1518071,29.7986607 C23.5075147,30.0701471 22.8329533,30.278181 22.1480378,30.4185935 C21.4449191,30.5632167 20.7219273,30.63705 19.9995199,30.63705 C19.2765697,30.63705 18.5536196,30.5632167 17.8515029,30.4185935 C17.1655436,30.278181 16.491024,30.0701471 15.8472326,29.7986607 C15.2149226,29.5307597 14.6044481,29.2004902 14.0346385,28.8166905 C13.4705487,28.4343917 12.9392747,27.9969785 12.4574749,27.5164159 C11.9751742,27.0337689 11.5365861,26.5043038 11.1553213,25.939944 C10.7709253,25.3719989 10.4396358,24.7629472 10.1719321,24.1310077 C9.89896792,23.487645 9.69013236,22.814599 9.54897421,22.1291293 C9.4062713,21.4269418 9.33333333,20.7065774 9.33333333,19.9852125 C9.33333333,19.2633056 9.40622955,18.5413987 9.54901596,17.8407537 C9.69017411,17.1552423 9.89900967,16.4811957 10.1719739,15.8388753 C10.4396775,15.2064355 10.770967,14.5968836 11.1553631,14.0288968 C11.5366278,13.4640784 11.9752159,12.9356138 12.4575167,12.4524248 C12.9393164,11.9718206 13.4705904,11.5354913 14.0346802,11.1537344 C14.6044899,10.7683089 15.2149644,10.438081 15.8472744,10.1696798 C16.4910657,9.89760973 17.1655436,9.68907552 17.8515447,9.5497053 C18.5536613,9.40616605 19.2766115,9.33333333 19.9995616,9.33333333 C20.721969,9.33333333 21.4449191,9.40616605 22.1480796,9.5497053 C22.8329951,9.68911721 23.5075147,9.89765142 24.1518489,10.1696798 C24.7841588,10.4380394 25.3940906,10.7683089 25.9639002,11.1537344 C26.5279901,11.5354913 27.0593058,11.9718206 27.5421076,12.4524248 C28.0239073,12.9356138 28.4624954,13.4640784 28.8432174,14.0288968 C29.2296592,14.5968836 29.560406,15.2064772 29.8270659,15.8388753 C30.0999883,16.4811957 30.3083229,17.1552423 30.44898,17.8407537 C30.5932277,18.5413987 30.6666667,19.2633056 30.6666667,19.9852125 Z M16.1128488,11.7575748 C13.5725867,12.9554167 11.6766587,15.2927758 11.0854729,18.109697 C11.3256212,18.1117815 15.1216522,18.1596418 19.4953001,16.9992377 C17.9186793,14.2020777 16.2342172,11.9193743 16.1128488,11.7575748 Z M20.2500223,18.3999439 C15.5596975,19.8021093 11.0589196,19.7012191 10.8974708,19.6950072 C10.8948405,19.7927707 10.8901645,19.8874074 10.8901645,19.9852125 C10.8901645,22.3220297 11.7730187,24.4523972 13.2241377,26.0632218 C13.2210065,26.0585108 15.7138818,21.6422715 20.6297423,20.0549184 C20.7484805,20.0153962 20.869348,19.9800012 20.9891299,19.9456902 C20.7605046,19.4287322 20.5109624,18.9106901 20.2500223,18.3999439 Z M26.015462,13.1582393 C24.4117034,11.74611 22.3058961,10.8895439 19.9995199,10.8895439 C19.2593686,10.8895439 18.5410945,10.979011 17.8530477,11.1443958 C17.989488,11.3274991 19.7005452,13.59411 21.25842,16.4505117 C24.6956062,15.1637865 25.993042,13.1915081 26.015462,13.1582393 Z M21.6100003,21.4529565 C21.5897096,21.4596686 21.5694189,21.4654635 21.5495874,21.4727176 C16.1749186,23.3437034 14.4197476,27.1142765 14.4007576,27.1554369 C15.9472249,28.3563477 17.8869073,29.0808811 19.9995199,29.0808811 C21.2610086,29.0808811 22.4626272,28.8244032 23.5559035,28.3600165 C23.4210079,27.5652768 22.8918214,24.7795816 21.6100003,21.4529565 Z M25.0898971,27.5288813 C27.1352916,26.1506044 28.5879554,23.9619958 28.9931849,21.4269001 C28.8056838,21.3665745 26.2571134,20.560912 23.3168406,21.0316357 C24.5116957,24.3104422 24.9971695,26.9806973 25.0898971,27.5288813 Z M21.9595347,17.8059424 C22.1709588,18.2397286 22.3757028,18.6812275 22.5647487,19.1249359 C22.6319669,19.284109 22.6975985,19.4401553 22.7616436,19.5961599 C25.8909623,19.2029382 28.973938,19.8645195 29.105744,19.8915347 C29.0849106,17.7351942 28.3124444,15.756162 27.0342973,14.2067887 C27.0170961,14.2311774 25.5560822,16.339199 21.9595347,17.8059424 Z" id="Path" fill="#FFFFFF"></path>
                </g>
            </g>
        </g>
    </g>
</svg>